  <svg version="1.1" xmlns="http://www.w3.org/2000/svg" viewBox="0 0 191.2985058784481 187.59758909298282" width="191.2985058784481" height="187.59758909298282"><!-- svg-source:excalidraw --><metadata></metadata><defs><style class="style-fonts">
      </style></defs><rect x="0" y="0" width="191.2985058784481" height="187.59758909298282" fill="#ffffff"></rect><g stroke-linecap="round"><g transform="translate(180.24547629542616 176.40658703809777) rotate(0 -79.71765886514487 -82.93274033344437)"><path d="M1.05 1.19 C-25.78 -6.61, -135.1 -18.74, -160.58 -46.67 C-186.05 -74.61, -153.3 -146.74, -151.82 -166.41 M0.15 0.77 C-26.37 -7.43, -132.95 -20.95, -158.46 -48.64 C-183.97 -76.33, -154.04 -145.71, -152.92 -165.37" stroke="#ced4da" stroke-width="4" fill="none"></path></g><g transform="translate(180.24547629542616 176.40658703809777) rotate(0 -79.71765886514487 -82.93274033344437)"><path d="M-149.79 -140.57 C-148.89 -150.77, -151.43 -158.26, -152.92 -165.37 M-149.79 -140.57 C-151.24 -145.97, -151.52 -152.61, -152.92 -165.37" stroke="#ced4da" stroke-width="4" fill="none"></path></g><g transform="translate(180.24547629542616 176.40658703809777) rotate(0 -79.71765886514487 -82.93274033344437)"><path d="M-166.47 -144.36 C-159.96 -153.43, -156.91 -159.65, -152.92 -165.37 M-166.47 -144.36 C-163.68 -148.96, -159.71 -154.64, -152.92 -165.37" stroke="#ced4da" stroke-width="4" fill="none"></path></g></g><mask></mask></svg>
